<?xml version="1.0" encoding="UTF-8"?>
<svg version="1.1" xmlns="http://www.w3.org/2000/svg" width="129" height="129">
<path d="M0 0 C1.2065625 0.0309375 1.2065625 0.0309375 2.4375 0.0625 C2.4375 1.3825 2.4375 2.7025 2.4375 4.0625 C3.0975 4.0625 3.7575 4.0625 4.4375 4.0625 C4.81456037 10.47252622 3.66739411 15.9925941 2.09375 22.20703125 C1.32550846 25.06147838 1.32550846 25.06147838 1.4375 28.0625 C-1.09128289 29.32689145 -3.18262127 29.35297383 -6 29.5625 C-9.12558718 29.79556642 -11.57674829 30.06724943 -14.5625 31.0625 C-17.34777191 35.24040786 -17.6805476 38.92632373 -17.72021484 43.86523438 C-17.73560806 45.25192322 -17.73560806 45.25192322 -17.75131226 46.66662598 C-17.75861359 47.6532019 -17.76591492 48.63977783 -17.7734375 49.65625 C-17.80149427 51.75912253 -17.83015864 53.86198702 -17.859375 55.96484375 C-17.90069176 59.26969273 -17.93759452 62.57438968 -17.96386719 65.87939453 C-17.99146241 69.07615793 -18.03731801 72.27224649 -18.0859375 75.46875 C-18.08919037 76.45532593 -18.09244324 77.44190186 -18.09579468 78.45837402 C-18.25444836 87.31173146 -18.25444836 87.31173146 -21.5625 91.0625 C-24.25 91.375 -24.25 91.375 -26.5625 91.0625 C-27.2225 93.0425 -27.8825 95.0225 -28.5625 97.0625 C-30.5425 97.0625 -32.5225 97.0625 -34.5625 97.0625 C-34.8925 94.7525 -35.2225 92.4425 -35.5625 90.0625 C-36.490625 90.124375 -37.41875 90.18625 -38.375 90.25 C-41.5625 90.0625 -41.5625 90.0625 -43.375 88.75 C-45.39171481 85.88414211 -45.69392456 83.2972384 -45.75195312 79.90161133 C-45.76867065 79.06676712 -45.78538818 78.23192291 -45.8026123 77.3717804 C-45.81618774 76.47178818 -45.82976318 75.57179596 -45.84375 74.64453125 C-45.86215942 73.71331955 -45.88056885 72.78210785 -45.89953613 71.82267761 C-45.95829436 68.8401828 -46.01105463 65.85762935 -46.0625 62.875 C-46.13054887 58.96473373 -46.20434502 55.05463214 -46.28125 51.14453125 C-46.29482544 50.25466019 -46.30840088 49.36478912 -46.3223877 48.44795227 C-45.96866041 39.02620587 -45.96866041 39.02620587 -49.5625 31.0625 C-54.53728391 29.84913807 -59.47838755 29.96081775 -64.5625 30.0625 C-66.62315738 22.07745266 -68.8376322 11.47031423 -65.546875 3.6484375 C-65.22203125 3.12507813 -64.8971875 2.60171875 -64.5625 2.0625 C-63.77488281 2.14628906 -62.98726562 2.23007812 -62.17578125 2.31640625 C-55.41983198 2.94802754 -49.11082829 2.96768696 -42.3671875 2.31640625 C-36.57366134 1.92977463 -30.78811464 2.01965372 -24.984375 2.09985352 C-20.05727105 2.14747849 -15.44318817 1.84733428 -10.5625 1.0625 C-8.22916667 1.0625 -5.89583333 1.0625 -3.5625 1.0625 C-2.5625 0.0625 -2.5625 0.0625 0 0 Z " fill="#171717" transform="translate(95.5625,15.9375)"/>
<path d="M0 0 C0.66 0 1.32 0 2 0 C3.38232443 1.62626404 4.71937515 3.2925002 6 5 C5.51104248 5.82641495 5.51104248 5.82641495 5.01220703 6.66952515 C3.82396902 9.40528839 3.77104908 11.31153522 3.8046875 14.28759766 C3.81129395 15.34194 3.81790039 16.39628235 3.82470703 17.48257446 C3.84130371 18.61496552 3.85790039 19.74735657 3.875 20.9140625 C3.88257324 22.08004974 3.89014648 23.24603699 3.89794922 24.44735718 C3.92239754 28.17338753 3.9596682 31.89910971 4 35.625 C4.05298677 40.53384544 4.09306284 45.44254015 4.125 50.3515625 C4.14159668 51.48800201 4.15819336 52.62444153 4.17529297 53.7953186 C4.18189941 54.84335663 4.18850586 55.89139465 4.1953125 56.97119141 C4.20578613 57.89622467 4.21625977 58.82125793 4.22705078 59.77432251 C4 62 4 62 2 64 C-3.07621123 59.6288181 -6.44093397 54.81054094 -7.23339844 47.99169922 C-7.45825991 44.97469692 -7.60843921 41.96518097 -7.67285156 38.94042969 C-7.76762209 35.15133177 -7.88545073 32.22257309 -10 29 C-9.01 29 -8.02 29 -7 29 C-7.02320312 27.95199219 -7.04640625 26.90398437 -7.0703125 25.82421875 C-7.08907303 24.44531963 -7.10727293 23.0664128 -7.125 21.6875 C-7.15013672 20.65206055 -7.15013672 20.65206055 -7.17578125 19.59570312 C-7.21217794 15.82864604 -7.14378864 14.21568296 -5 11 C-4.34 11 -3.68 11 -3 11 C-3.33 8.69 -3.66 6.38 -4 4 C-2.68 3.34 -1.36 2.68 0 2 C0 1.34 0 0.68 0 0 Z " fill="#303030" transform="translate(73,40)"/>
<path d="M0 0 C1.9375 0.3125 1.9375 0.3125 4 1 C4.90643094 3.71929281 5.12844464 5.29237812 5.1328125 8.0859375 C5.13474609 8.92108887 5.13667969 9.75624023 5.13867188 10.61669922 C5.13416016 11.52693848 5.12964844 12.43717773 5.125 13.375 C5.12306641 14.32004395 5.12113281 15.26508789 5.11914062 16.23876953 C5.04445427 29.16573265 4.5125892 42.08438809 4 55 C3.34 54.67 2.68 54.34 2 54 C1.375 51.4375 1.375 51.4375 1 49 C0.34 49 -0.32 49 -1 49 C-2.03066429 43.91211757 -2.15027495 39.03951563 -2.125 33.875 C-2.12886719 33.07707031 -2.13273437 32.27914062 -2.13671875 31.45703125 C-2.13542969 30.68488281 -2.13414063 29.91273437 -2.1328125 29.1171875 C-2.13168457 28.42222168 -2.13055664 27.72725586 -2.12939453 27.01123047 C-1.99364333 24.90119569 -1.52159576 23.04450121 -1 21 C-0.95645926 18.7712586 -0.96006613 16.54130895 -1 14.3125 C-1.03744309 12.2086665 -1.04694322 10.10364296 -1 8 C-0.67 7.67 -0.34 7.34 0 7 C0.04092937 4.66702567 0.04241723 2.33294775 0 0 Z " fill="#555555" transform="translate(70,45)"/>
<path d="M0 0 C0.74338623 0.06566162 1.48677246 0.13132324 2.25268555 0.19897461 C11.43795377 0.96295209 20.60298346 1.30746083 29.8125 1.5625 C31.29493013 1.60583832 32.7773521 1.64945656 34.25976562 1.69335938 C37.83975588 1.7987877 41.41984029 1.90047111 45 2 C44.67 2.66 44.34 3.32 44 4 C31.79 4.66 19.58 5.32 7 6 C7 8.97 7 11.94 7 15 C3 16 3 16 1 15 C1.33 17.97 1.66 20.94 2 24 C2.99 24.33 3.98 24.66 5 25 C5 25.99 5 26.98 5 28 C3.35 28 1.7 28 0 28 C-2.2491197 19.28466116 -4.46579817 8.20207917 0 0 Z " fill="#262626" transform="translate(31,18)"/>
<path d="M0 0 C-0.41421269 2.48527616 -0.77570411 4.5934637 -2 6.8125 C-3.23075167 9.50476929 -3.4146141 11.80459736 -3.625 14.75 C-3.69976562 15.73484375 -3.77453125 16.7196875 -3.8515625 17.734375 C-3.90054688 18.48203125 -3.94953125 19.2296875 -4 20 C-4.99 19.34 -5.98 18.68 -7 18 C-7 17.34 -7 16.68 -7 16 C-7.66 16 -8.32 16 -9 16 C-9.96165069 13.11504794 -10.22728086 11.01406646 -10.3125 8 C-10.34988281 7.13375 -10.38726562 6.2675 -10.42578125 5.375 C-10 3 -10 3 -8.18359375 1.19921875 C-5.34407337 -0.36023162 -3.18826055 -0.2173814 0 0 Z " fill="#606060" transform="translate(98,21)"/>
<path d="M0 0 C0.66 0 1.32 0 2 0 C1.67 10.56 1.34 21.12 1 32 C-1 31 -1 31 -2.125 27.9375 C-3.11406131 23.61231917 -3.21665204 19.29360512 -3.25 14.875 C-3.25918457 14.19429443 -3.26836914 13.51358887 -3.27783203 12.81225586 C-3.25198451 8.56137245 -3.20557294 3.20557294 0 0 Z " fill="#5B5B5B" transform="translate(73,68)"/>
<path d="M0 0 C1.2065625 0.0309375 1.2065625 0.0309375 2.4375 0.0625 C2.4375 1.3825 2.4375 2.7025 2.4375 4.0625 C3.0975 4.0625 3.7575 4.0625 4.4375 4.0625 C4.81456037 10.47252622 3.66739411 15.9925941 2.09375 22.20703125 C1.32550846 25.06147838 1.32550846 25.06147838 1.4375 28.0625 C0.7775 28.0625 0.1175 28.0625 -0.5625 28.0625 C-0.73148112 22.70439031 -0.12761422 17.86900828 0.9375 12.625 C1.08058594 11.89345703 1.22367188 11.16191406 1.37109375 10.40820312 C1.72071296 8.62514514 2.07827688 6.84364797 2.4375 5.0625 C0.1275 5.0625 -2.1825 5.0625 -4.5625 5.0625 C-4.5625 4.4025 -4.5625 3.7425 -4.5625 3.0625 C-8.8525 3.0625 -13.1425 3.0625 -17.5625 3.0625 C-17.5625 2.7325 -17.5625 2.4025 -17.5625 2.0625 C-12.83164966 1.29011627 -8.3479851 1.0625 -3.5625 1.0625 C-2.5625 0.0625 -2.5625 0.0625 0 0 Z " fill="#181818" transform="translate(95.5625,15.9375)"/>
<path d="M0 0 C1.65 0 3.3 0 5 0 C5.33 2.31 5.66 4.62 6 7 C2.25 8.125 2.25 8.125 0 7 C0.33 9.97 0.66 12.94 1 16 C1.99 16.33 2.98 16.66 4 17 C4 17.99 4 18.98 4 20 C2.35 20 0.7 20 -1 20 C-2.40454548 13.88019467 -3.23268915 8.28260706 -3 2 C-2.34 2 -1.68 2 -1 2 C-0.67 1.34 -0.34 0.68 0 0 Z " fill="#444444" transform="translate(32,26)"/>
<path d="M0 0 C0.33 0 0.66 0 1 0 C2.44210207 13.05617412 3.28871063 25.86366642 3 39 C2.01 38.67 1.02 38.34 0 38 C0 25.46 0 12.92 0 0 Z " fill="#464646" transform="translate(50,62)"/>
<path d="M0 0 C2.69082872 0.17635452 5.32851446 0.61835921 8 1 C7.125 5.75 7.125 5.75 6 8 C4.35 8 2.7 8 1 8 C1 9.65 1 11.3 1 13 C0.67 12.01 0.34 11.02 0 10 C-0.66 10 -1.32 10 -2 10 C-1.85950482 8.52031676 -1.71245174 7.04125484 -1.5625 5.5625 C-1.48128906 4.73878906 -1.40007813 3.91507813 -1.31640625 3.06640625 C-1 1 -1 1 0 0 Z " fill="#262626" transform="translate(31,18)"/>
<path d="M0 0 C0.33 0 0.66 0 1 0 C1.14515468 3.12082558 1.2310233 5.45915476 -0.0078125 8.359375 C-1.12158111 11.32357806 -1.14004492 13.41586581 -1 16.5625 C-0.82498291 20.50585375 -1.2403564 22.52845508 -3 26 C-3.24029959 28.59154919 -3.24029959 28.59154919 -3.125 31.25 C-3.10695313 32.14203125 -3.08890625 33.0340625 -3.0703125 33.953125 C-3.04710938 34.62859375 -3.02390625 35.3040625 -3 36 C-3.33 36 -3.66 36 -4 36 C-4.07347656 35.09507813 -4.07347656 35.09507813 -4.1484375 34.171875 C-4.22320312 33.37265625 -4.29796875 32.5734375 -4.375 31.75 C-4.44460937 30.96109375 -4.51421875 30.1721875 -4.5859375 29.359375 C-5.01507113 26.914123 -5.78600638 25.15163097 -7 23 C-6.01 23 -5.02 23 -4 23 C-4.02320312 21.95199219 -4.04640625 20.90398437 -4.0703125 19.82421875 C-4.08907303 18.44531963 -4.10727293 17.0664128 -4.125 15.6875 C-4.15013672 14.65206055 -4.15013672 14.65206055 -4.17578125 13.59570312 C-4.21217794 9.82864604 -4.14378864 8.21568296 -2 5 C-1.34 5 -0.68 5 0 5 C0 3.35 0 1.7 0 0 Z " fill="#2E2E2E" transform="translate(70,46)"/>
<path d="M0 0 C0.66 0 1.32 0 2 0 C3.38232443 1.62626404 4.71937515 3.2925002 6 5 C5.50693359 5.83917969 5.50693359 5.83917969 5.00390625 6.6953125 C3.8534288 9.33648642 3.8286366 11.0097154 3.9375 13.875 C4.07442073 20.62062814 3.54934354 27.28035132 3 34 C2.67 34 2.34 34 2 34 C1.97494385 33.25838623 1.9498877 32.51677246 1.92407227 31.75268555 C1.80813868 28.39744672 1.68540015 25.04249056 1.5625 21.6875 C1.52318359 20.52025391 1.48386719 19.35300781 1.44335938 18.15039062 C1.40146484 17.03212891 1.35957031 15.91386719 1.31640625 14.76171875 C1.27974854 13.73006592 1.24309082 12.69841309 1.20532227 11.63549805 C1.09838758 8.89251742 1.09838758 8.89251742 0 6 C-1.32 6 -2.64 6 -4 6 C-4 5.34 -4 4.68 -4 4 C-2.68 3.34 -1.36 2.68 0 2 C0 1.34 0 0.68 0 0 Z " fill="#303030" transform="translate(73,40)"/>
<path d="M0 0 C1.38565995 3.84905542 0.66200147 7.02799121 0 11 C-0.19417322 12.47830546 -0.38175574 13.95749264 -0.5625 15.4375 C-0.7790625 17.2009375 -0.7790625 17.2009375 -1 19 C-7.93 18.505 -7.93 18.505 -15 18 C-14.67 17.34 -14.34 16.68 -14 16 C-11.67711188 15.60689586 -9.38154824 15.49250305 -7.03125 15.34375 C-6.3609375 15.2303125 -5.690625 15.116875 -5 15 C-4.67 14.34 -4.34 13.68 -4 13 C-3.67 13.33 -3.34 13.66 -3 14 C-2.95101562 13.32453125 -2.90203125 12.6490625 -2.8515625 11.953125 C-2.77679688 11.06109375 -2.70203125 10.1690625 -2.625 9.25 C-2.55539063 8.36828125 -2.48578125 7.4865625 -2.4140625 6.578125 C-2.00149945 4.00933618 -1.28839043 2.24158985 0 0 Z " fill="#262626" transform="translate(96,26)"/>
<path d="M0 0 C3.0625 0.1875 3.0625 0.1875 5.0625 2.1875 C4.4025 4.1675 3.7425 6.1475 3.0625 8.1875 C1.0825 8.1875 -0.8975 8.1875 -2.9375 8.1875 C-3.31813221 5.8614143 -3.65019945 3.52694736 -3.9375 1.1875 C-2.9375 0.1875 -2.9375 0.1875 0 0 Z " fill="#121212" transform="translate(63.9375,104.8125)"/>
<path d="M0 0 C0.66 0 1.32 0 2 0 C4.23334367 2.27119696 4.95840784 3.60293349 5.29296875 6.796875 C5.25816406 7.77140625 5.22335938 8.7459375 5.1875 9.75 C5.14689453 11.22726563 5.14689453 11.22726563 5.10546875 12.734375 C5.07066406 13.48203125 5.03585938 14.2296875 5 15 C4.01 15.495 4.01 15.495 3 16 C2.87882812 15.24074219 2.75765625 14.48148438 2.6328125 13.69921875 C2.46523438 12.70535156 2.29765625 11.71148437 2.125 10.6875 C1.96257813 9.70136719 1.80015625 8.71523438 1.6328125 7.69921875 C1.11914546 4.79940173 1.11914546 4.79940173 -1 2 C-0.67 1.34 -0.34 0.68 0 0 Z " fill="#3D3D3D" transform="translate(47,44)"/>
<path d="M0 0 C0.33 0 0.66 0 1 0 C1 8.91 1 17.82 1 27 C0.67 27 0.34 27 0 27 C-0.06058594 25.97519531 -0.12117188 24.95039062 -0.18359375 23.89453125 C-0.26805026 22.53384305 -0.35269567 21.17316657 -0.4375 19.8125 C-0.47681641 19.13896484 -0.51613281 18.46542969 -0.55664062 17.77148438 C-0.78927565 14.10300898 -1.17207011 10.58305794 -2 7 C-2.33 7 -2.66 7 -3 7 C-3 5.35 -3 3.7 -3 2 C-2.01 2.495 -2.01 2.495 -1 3 C-0.67 2.01 -0.34 1.02 0 0 Z " fill="#292929" transform="translate(52,56)"/>
<path d="M0 0 C-0.33 1.32 -0.66 2.64 -1 4 C-1 3.01 -1 2.02 -1 1 C-2.94999129 1.19471111 -2.94999129 1.19471111 -5 2 C-6.92391865 5.02330073 -7.34582912 7.71383558 -7.625 11.25 C-7.69976562 12.14203125 -7.77453125 13.0340625 -7.8515625 13.953125 C-7.90054688 14.62859375 -7.94953125 15.3040625 -8 16 C-10.13163428 12.80254858 -10.31975564 11.71242084 -10.375 8 C-10.40335937 7.13375 -10.43171875 6.2675 -10.4609375 5.375 C-10 3 -10 3 -8.1796875 1.19921875 C-5.34247513 -0.36175651 -3.18675824 -0.21727897 0 0 Z " fill="#3D3D3D" transform="translate(98,21)"/>
<path d="M0 0 C1.2065625 0.0309375 1.2065625 0.0309375 2.4375 0.0625 C2.4375 1.3825 2.4375 2.7025 2.4375 4.0625 C-4.1625 3.7325 -10.7625 3.4025 -17.5625 3.0625 C-17.5625 2.7325 -17.5625 2.4025 -17.5625 2.0625 C-12.83164966 1.29011627 -8.3479851 1.0625 -3.5625 1.0625 C-2.5625 0.0625 -2.5625 0.0625 0 0 Z " fill="#0F0F0F" transform="translate(95.5625,15.9375)"/>
<path d="M0 0 C-0.33 0.99 -0.66 1.98 -1 3 C-4.3 3 -7.6 3 -11 3 C-11 2.01 -11 1.02 -11 0 C-7.01803543 -1.05404945 -4.01804691 -0.84098656 0 0 Z " fill="#2F2F2F" transform="translate(50,20)"/>
<path d="M0 0 C1.32 0 2.64 0 4 0 C4.33 2.31 4.66 4.62 5 7 C3.0625 7.5625 3.0625 7.5625 1 8 C0 7 0 7 -0.0625 3.4375 C-0.041875 2.303125 -0.02125 1.16875 0 0 Z " fill="#ABABAB" transform="translate(33,26)"/>
<path d="M0 0 C2.64 0.33 5.28 0.66 8 1 C7.34 2.32 6.68 3.64 6 5 C3.66666667 5 1.33333333 5 -1 5 C-0.67 3.35 -0.34 1.7 0 0 Z " fill="#575757" transform="translate(31,18)"/>
<path d="M0 0 C0.33 0 0.66 0 1 0 C1.1446951 3.11094474 1.23376209 5.4521201 0 8.34375 C-1.1330592 11.3534385 -1.20214825 13.61084756 -1.125 16.8125 C-1.10695313 17.78832031 -1.08890625 18.76414062 -1.0703125 19.76953125 C-1.04710938 20.50558594 -1.02390625 21.24164063 -1 22 C-1.66 22.33 -2.32 22.66 -3 23 C-3 17.39 -3 11.78 -3 6 C-2.01 5.67 -1.02 5.34 0 5 C0 3.35 0 1.7 0 0 Z " fill="#363636" transform="translate(70,46)"/>
<path d="M0 0 C1.88386872 5.23296866 0.11719091 10.73324283 -1 16 C-1.66 15.67 -2.32 15.34 -3 15 C-2.88529863 13.24929483 -2.75780972 11.49942464 -2.625 9.75 C-2.55539063 8.77546875 -2.48578125 7.8009375 -2.4140625 6.796875 C-2.01534751 4.10366811 -1.36492937 2.33036721 0 0 Z " fill="#363636" transform="translate(96,26)"/>
<path d="M0 0 C1.98 0.495 1.98 0.495 4 1 C4 1.99 4 2.98 4 4 C3.34 4 2.68 4 2 4 C1.87625 5.134375 1.7525 6.26875 1.625 7.4375 C1.41875 8.613125 1.2125 9.78875 1 11 C0.01 11.495 0.01 11.495 -1 12 C-0.9278125 11.21753906 -0.855625 10.43507813 -0.78125 9.62890625 C-0.6884375 8.61699219 -0.595625 7.60507812 -0.5 6.5625 C-0.4071875 5.55316406 -0.314375 4.54382812 -0.21875 3.50390625 C-0.05845072 1.75417336 -0.05845072 1.75417336 0 0 Z " fill="#484848" transform="translate(70,45)"/>
<path d="M0 0 C-0.33 0.99 -0.66 1.98 -1 3 C-3.31 3 -5.62 3 -8 3 C-7.67 2.01 -7.34 1.02 -7 0 C-4.05610218 -1.17755913 -3.10046087 -1.03348696 0 0 Z " fill="#3D3D3D" transform="translate(45,42)"/>
<path d="M0 0 C0.99 0 1.98 0 3 0 C3 2.97 3 5.94 3 9 C2.67 9 2.34 9 2 9 C2 7.35 2 5.7 2 4 C1.34 4 0.68 4 0 4 C0 2.68 0 1.36 0 0 Z " fill="#353535" transform="translate(50,83)"/>
<path d="M0 0 C0.66 0 1.32 0 2 0 C4 3 4 3 4 6 C0.125 4.25 0.125 4.25 -1 2 C-0.67 1.34 -0.34 0.68 0 0 Z " fill="#494949" transform="translate(47,44)"/>
</svg>
